<?xml version="1.0" encoding="UTF-8"?><svg id="a" xmlns="http://www.w3.org/2000/svg" width="128" height="35.96" viewBox="0 0 128 35.96"><path id="b" d="M3.78,3.6h5.59c2,0,3.72,.73,3.72,3.58s-2.09,3.58-3.78,3.58H3.78V3.6ZM0,22.11H3.78V13.85h5.75c6.17,.03,7.35-3.97,7.35-6.64S15.7,.51,9.53,.51H0V22.11Z" style="fill:#009775; fill-rule:evenodd;"/><path id="c" d="M19.48,22.11h3.78V12.37h9.83v9.74h3.78V.51h-3.78V9.1h-9.83V.51h-3.78V22.11Z" style="fill:#009775;"/><path id="d" d="M49.98,0c-6.47,0-10.34,5.14-10.34,11.31s3.87,11.31,10.34,11.31,10.34-5.14,10.34-11.31S56.45,0,49.98,0m0,3.09c4.63,0,6.56,4.08,6.56,8.23s-1.93,8.23-6.56,8.23-6.56-4.08-6.56-8.23,1.94-8.23,6.56-8.23" style="fill:#009775; fill-rule:evenodd;"/><path id="e" d="M63.16,22.11h15.76v-3.27h-11.98v-6.32h10.89v-3.09h-10.89V3.77h11.76V.51h-15.54V22.11Z" style="fill:#009775;"/><path id="f" d="M81.45,22.11h3.6V6.23h.09l9.83,15.88h3.99V.51h-3.6v15.91h-.06L85.44,.51h-3.99V22.11Z" style="fill:#009775;"/><rect id="g" x="102.82" y=".51" width="3.78" height="21.59" style="fill:#009775;"/><path id="h" d="M115.87,10.92l-7.65,11.19h4.33l5.47-8.26,5.38,8.26h4.6l-7.65-11.19L127.49,.52h-4.23l-5.11,7.62-4.9-7.62h-4.51l7.13,10.4Z" style="fill:#009775;"/><path id="i" d="M.92,33.12v2.74H0v-7H2.58c.65-.04,1.3,.17,1.8,.59,.44,.4,.67,.96,.65,1.55,.04,.59-.2,1.17-.63,1.57-.52,.4-1.17,.59-1.83,.55H.92Zm0-.75h1.66c.41,.03,.81-.1,1.13-.35,.27-.26,.42-.63,.39-1.01,.02-.37-.13-.74-.39-1-.3-.26-.68-.4-1.08-.39H.92v2.75Z" style="fill:#535353;"/><path id="j" d="M9.42,31.29c.37-.47,.94-.74,1.54-.73,1.1,0,1.65,.62,1.66,1.86v3.44h-.89v-3.45c.02-.3-.07-.6-.26-.83-.21-.2-.5-.29-.79-.27-.27,0-.54,.08-.76,.23-.22,.16-.39,.36-.51,.61v3.71h-.89v-7.39h.89v2.82Z" style="fill:#535353;"/><path id="k" d="M19.63,35.86c-.07-.18-.11-.36-.12-.55-.38,.41-.92,.65-1.48,.64-.46,.02-.91-.14-1.26-.43-.32-.27-.5-.68-.49-1.1-.02-.5,.21-.98,.62-1.27,.52-.33,1.13-.49,1.74-.45h.86v-.41c.01-.28-.09-.54-.28-.74-.23-.2-.52-.3-.82-.28-.29,0-.57,.07-.8,.24-.2,.13-.32,.35-.32,.58h-.89c0-.27,.1-.54,.28-.75,.2-.25,.46-.45,.75-.57,.33-.14,.68-.22,1.04-.21,.51-.03,1.01,.13,1.41,.45,.35,.32,.54,.77,.53,1.24v2.39c-.02,.39,.05,.78,.18,1.14v.08h-.93Zm-1.48-.68c.28,0,.55-.07,.79-.22,.23-.13,.42-.32,.54-.56v-1.07h-.7c-1.09,0-1.63,.32-1.63,.96-.01,.25,.09,.49,.28,.65,.2,.16,.46,.25,.72,.24" style="fill:#535353;"/><path id="l" d="M26.75,31.46c-.14-.02-.29-.03-.44-.03-.52-.04-1,.26-1.19,.75v3.69h-.89v-5.2h.87v.6c.27-.44,.74-.71,1.25-.7,.13,0,.27,.02,.39,.07v.83Z" style="fill:#535353;"/><path id="m" d="M30.86,30.66l.02,.58c.38-.45,.95-.7,1.54-.67,.62-.06,1.22,.27,1.49,.84,.17-.25,.41-.46,.68-.61,.3-.16,.64-.24,.98-.23,1.14,0,1.72,.6,1.74,1.81v3.49h-.89v-3.43c.02-.3-.07-.6-.25-.83-.23-.21-.54-.31-.86-.28-.3,0-.6,.1-.82,.3-.22,.21-.36,.49-.38,.8v3.45h-.89v-3.42c.08-.54-.29-1.05-.83-1.13-.09-.01-.19-.02-.28,0-.52-.04-1.01,.26-1.2,.75v3.8h-.89v-5.2h.84Z" style="fill:#535353;"/><path id="n" d="M44.33,35.86c-.07-.18-.11-.36-.12-.55-.38,.41-.92,.65-1.48,.64-.46,.02-.91-.14-1.26-.43-.32-.27-.5-.68-.49-1.1-.02-.5,.21-.97,.62-1.26,.52-.33,1.13-.49,1.74-.45h.87v-.41c.01-.28-.09-.54-.28-.74-.23-.2-.52-.3-.82-.28-.29,0-.57,.07-.8,.24-.2,.13-.32,.35-.32,.58h-.89c0-.27,.1-.54,.28-.75,.2-.25,.46-.45,.75-.57,.33-.14,.68-.22,1.04-.21,.51-.03,1.01,.13,1.41,.45,.35,.32,.54,.77,.53,1.24v2.39c-.02,.39,.05,.78,.18,1.14v.08h-.93Zm-1.48-.68c.28,0,.55-.07,.79-.22,.23-.13,.42-.32,.54-.56v-1.07h-.7c-1.09,0-1.64,.32-1.64,.96-.01,.25,.1,.49,.29,.65,.2,.16,.46,.25,.72,.24" style="fill:#535353;"/><path id="o" d="M56.04,32.74c-.63-.15-1.22-.43-1.73-.84-.35-.31-.55-.76-.54-1.23,0-.53,.24-1.04,.66-1.37,.49-.38,1.1-.57,1.72-.54,.44,0,.88,.09,1.29,.28,.36,.17,.66,.44,.88,.77,.2,.32,.31,.69,.31,1.07h-.93c.02-.38-.13-.74-.4-1-.32-.26-.73-.39-1.14-.36-.38-.02-.75,.08-1.07,.3-.25,.2-.4,.51-.38,.84,0,.29,.13,.55,.36,.72,.37,.26,.79,.44,1.24,.54,.48,.12,.94,.3,1.37,.54,.3,.17,.55,.4,.73,.69,.16,.28,.25,.6,.24,.93,.02,.54-.23,1.04-.66,1.36-.52,.36-1.14,.54-1.77,.51-.46,0-.92-.09-1.35-.28-.38-.16-.72-.42-.96-.76-.23-.32-.35-.7-.34-1.1h.93c-.02,.39,.16,.76,.47,1,.36,.26,.81,.39,1.25,.37,.4,.03,.79-.08,1.12-.3,.26-.19,.4-.49,.39-.81,.02-.31-.12-.61-.36-.8-.4-.26-.84-.45-1.31-.56" style="fill:#535353;"/><path id="p" d="M66.74,34.64l1-3.98h.89l-1.51,5.2h-.72l-1.26-3.94-1.23,3.94h-.72l-1.51-5.2h.88l1.02,3.89,1.21-3.89h.72l1.23,3.98Z" style="fill:#535353;"/><path id="q" d="M72,29.28c0-.13,.04-.26,.13-.36,.1-.1,.25-.16,.39-.15,.15-.01,.29,.04,.39,.15,.09,.1,.14,.23,.13,.36-.03,.3-.29,.53-.59,.5-.12-.01-.24-.06-.33-.14-.09-.1-.14-.23-.13-.36m.96,6.58h-.89v-5.2h.89v5.2Z" style="fill:#535353;"/><path id="r" d="M78.06,29.4v1.26h.97v.69h-.97v3.23c-.01,.17,.03,.33,.13,.47,.12,.12,.28,.17,.44,.16,.14,0,.28-.02,.42-.06v.72c-.22,.06-.45,.1-.68,.1-.34,.02-.67-.11-.9-.36-.22-.3-.32-.66-.3-1.02v-3.23h-.95v-.69h.95v-1.26h.89Z" style="fill:#535353;"/><path id="s" d="M83.36,35.14h3.04v.73h-4.13v-.65l2.87-3.82h-2.83v-.74h3.94v.63l-2.9,3.85Z" style="fill:#535353;"/><path id="t" d="M91.94,35.96c-.65,.02-1.27-.23-1.72-.69-.46-.51-.7-1.18-.66-1.86v-.16c0-.48,.1-.95,.3-1.38,.18-.39,.47-.72,.83-.95,.34-.23,.74-.35,1.15-.34,.6-.03,1.18,.21,1.58,.67,.41,.55,.61,1.23,.56,1.91v.37h-3.52c0,.46,.15,.9,.45,1.24,.28,.31,.68,.49,1.09,.47,.28,0,.56-.06,.8-.19,.22-.13,.42-.3,.57-.51l.54,.42c-.43,.66-1.18,1.04-1.96,1m-.11-4.66c-.34,0-.67,.14-.9,.39-.26,.31-.42,.69-.45,1.1h2.61v-.07c0-.38-.13-.75-.37-1.05-.22-.25-.55-.39-.88-.37" style="fill:#535353;"/><path id="u" d="M99.98,31.46c-.14-.02-.29-.03-.44-.03-.52-.04-1,.26-1.19,.75v3.69h-.89v-5.2h.87v.6c.27-.44,.74-.71,1.25-.7,.13,0,.27,.02,.39,.07v.83Z" style="fill:#535353;"/><rect id="v" x="103.34" y="28.48" width=".89" height="7.39" style="fill:#535353;"/><path id="w" d="M111.32,35.86c-.07-.18-.11-.36-.12-.55-.38,.41-.92,.65-1.48,.64-.46,.02-.91-.14-1.26-.43-.32-.27-.5-.68-.49-1.1-.02-.5,.21-.97,.62-1.26,.52-.33,1.13-.49,1.74-.45h.86v-.41c.01-.28-.09-.54-.28-.74-.23-.2-.52-.3-.82-.28-.29,0-.57,.07-.8,.24-.2,.13-.32,.35-.32,.58h-.89c0-.27,.1-.54,.28-.75,.2-.25,.46-.45,.75-.57,.33-.14,.68-.22,1.04-.21,.51-.03,1.01,.13,1.41,.45,.35,.32,.54,.77,.53,1.24v2.39c-.02,.39,.05,.78,.18,1.14v.08h-.93Zm-1.48-.68c.28,0,.55-.07,.79-.22,.23-.13,.42-.32,.54-.56v-1.07h-.7c-1.09,0-1.63,.32-1.64,.96-.01,.25,.09,.49,.28,.65,.2,.16,.46,.25,.72,.24" style="fill:#535353;"/><path id="x" d="M116.77,30.66l.03,.65c.37-.49,.95-.76,1.56-.75,1.1,0,1.65,.62,1.66,1.86v3.44h-.89v-3.44c.02-.3-.07-.6-.26-.83-.21-.2-.5-.29-.79-.27-.27,0-.54,.08-.76,.23-.22,.16-.39,.36-.51,.61v3.71h-.89v-5.2h.84Z" style="fill:#535353;"/><path id="y" d="M123.61,33.22c-.03-.69,.17-1.36,.57-1.92,.66-.83,1.88-.97,2.71-.31,.08,.06,.15,.13,.22,.21v-2.72h.89v7.39h-.82l-.04-.56c-.36,.44-.92,.68-1.49,.65-.58,0-1.13-.27-1.47-.74-.4-.56-.6-1.24-.57-1.93v-.07Zm.89,.1c-.03,.49,.1,.97,.36,1.39,.23,.33,.61,.52,1.01,.5,.53,.02,1.02-.28,1.23-.76v-2.39c-.23-.47-.71-.76-1.23-.74-.4-.02-.79,.17-1.02,.5-.27,.45-.4,.97-.36,1.5" style="fill:#535353;"/></svg>